Coordinates
version=1
nRows=4
nColumns=63
inDegrees=yes

Units are S.I. units (second, meters, Newtons, ...)
If the header above contains a line with 'inDegrees', this indicates whether rotational values are in degrees (yes) or radians (no).

endheader
time	pelvis_tilt	pelvis_list	pelvis_rotation	pelvis_tx	pelvis_ty	pelvis_tz	hip_flexion_r	hip_adduction_r	hip_rotation_r	knee_angle_r	knee_angle_r_beta	ankle_angle_r	subtalar_angle_r	mtp_angle_r	hip_flexion_l	hip_adduction_l	hip_rotation_l	knee_angle_l	knee_angle_l_beta	ankle_angle_l	subtalar_angle_l	mtp_angle_l	L5_S1_Flex_Ext	L5_S1_Lat_Bending	L5_S1_axial_rotation	L4_L5_Flex_Ext	L4_L5_Lat_Bending	L4_L5_axial_rotation	L3_L4_Flex_Ext	L3_L4_Lat_Bending	L3_L4_axial_rotation	L2_L3_Flex_Ext	L2_L3_Lat_Bending	L2_L3_axial_rotation	L1_L2_Flex_Ext	L1_L2_Lat_Bending	L1_L2_axial_rotation	L1_T12_Flex_Ext	L1_T12_Lat_Bending	L1_T12_axial_rotation	Abs_r3	Abs_r2	Abs_r1	Abs_t1	Abs_t2	neck_flexion	neck_bending	neck_rotation	arm_flex_r	arm_add_r	arm_rot_r	elbow_flex_r	pro_sup_r	wrist_flex_r	wrist_dev_r	arm_flex_l	arm_add_l	arm_rot_l	elbow_flex_l	pro_sup_l	wrist_flex_l	wrist_dev_l
      4.83050847	     -0.11773995	      4.41471369	     93.34189941	      0.13913401	      0.78126336	      0.66055296	    -12.85187303	     -2.68936464	     -9.16778252	      6.97249070	      0.12169292	     32.07911342	     13.30383647	      0.00000000	    -11.87690797	      0.35582073	     -6.87113316	      4.90645607	      0.08563381	     30.79655713	     14.49689807	      0.00000000	     -0.07003231	     -0.31864585	      0.61979060	     -0.13005700	     -0.42379898	      0.65852752	     -0.11505608	     -0.77475552	      0.65852752	     -0.08003992	     -0.77475552	      0.54231678	     -0.06503200	     -0.64978262	      0.50357987	     -0.04001646	     -0.49358242	      0.46484295	     -0.50023376	     -3.60458558	      3.44708941	      0.00000000	      0.00000000	     22.23709930	      1.69623894	     -1.03826835	     84.69922680	    -12.29911648	     83.39436006	     40.74922288	     28.20844274	     29.18511965	      9.17661813	     97.63392363	     -1.37246165	    116.75520235	     36.46965125	     89.05542483	      6.49123262	    -24.54001333
      4.84745763	     -0.20723989	      3.94722601	     93.89815892	      0.13912547	      0.78022183	      0.65913731	    -12.59410802	     -2.61030302	     -9.53951755	      6.77750145	      0.11828972	     32.13242757	     13.07536742	      0.00000000	    -11.56312292	      0.37199916	     -5.46035358	      4.53664817	      0.07917945	     30.83855882	     13.74742112	      0.00000000	     -0.02633148	     -0.33822802	      0.59704983	     -0.04890018	     -0.44984327	      0.63436545	     -0.04325998	     -0.82236762	      0.63436545	     -0.03009424	     -0.82236762	      0.52241860	     -0.02445141	     -0.68971458	      0.48510299	     -0.01504581	     -0.52391521	      0.44778737	     -0.18808310	     -3.82610304	      3.32061206	      0.00000000	      0.00000000	     23.20303167	      1.28169430	     -1.06433674	     83.12705529	    -12.57191011	     80.93629112	     41.78363933	     15.77033156	     28.40002448	     22.61123170	     96.62944990	     -1.52613727	    113.73625632	     37.51700055	     89.02098999	      8.96859795	    -24.53590848
      4.86440678	     -0.30282886	      3.53666549	     94.46118591	      0.13913103	      0.77942174	      0.65764962	    -12.41486191	     -2.52011611	     -9.78507907	      6.55159646	      0.11434693	     32.17857307	     12.62460221	      0.00000000	    -11.30891972	      0.37944701	     -4.26953198	      4.13210073	      0.07211876	     30.94626202	     13.28515815	      0.00000000	      0.01923966	     -0.35260463	      0.45165894	      0.03572998	     -0.46896416	      0.47988762	      0.03160884	     -0.85732291	      0.47988762	      0.02198901	     -0.85732291	      0.39520157	      0.01786595	     -0.71903137	      0.36697289	      0.01099354	     -0.54618458	      0.33874420	      0.13742699	     -3.98873414	      2.51199151	      0.00000000	      0.00000000	     23.99712737	      1.09810663	     -0.00705060	     81.26173137	    -11.82420568	     78.18260752	     41.64525968	      9.67497360	     26.65026939	     30.31914015	     94.93817837	     -2.08548664	    110.01005329	     37.63812024	     88.86611451	     11.84171522	    -24.49154034
      4.88135593	     -0.40307036	      3.26427558	     94.48858158	      0.13938292	      0.77891277	      0.65639809	    -12.23100123	     -2.58425077	     -9.43415403	      6.50050465	      0.11345521	     32.32117325	     12.05698397	      0.00000000	    -11.31999796	      0.54068003	     -2.65268013	      3.46753268	      0.06051986	     30.82162220	     11.60370513	      0.00000000	      0.05801672	     -0.35940761	      0.33120233	      0.10774284	     -0.47801211	      0.35190247	      0.09531566	     -0.87386365	      0.35190247	      0.06630731	     -0.87386365	      0.28980203	      0.05387432	     -0.73290399	      0.26910189	      0.03315075	     -0.55672238	      0.24840174	      0.41440761	     -4.06569071	      1.84204797	      0.00000000	      0.00000000	     24.49530351	      0.96107094	      1.49825650	     80.02088883	    -11.16460167	     78.07945983	     42.25950102	      4.63149144	     22.53671227	     33.01132769	     93.20469098	     -2.45072350	    107.30004858	     36.84664076	     88.49469499	     16.13010895	    -24.38676932
